<svg xmlns="http://www.w3.org/2000/svg" viewBox="0 0 64 64" fill="none">
  <defs>
    <linearGradient id="outer" x1="8" y1="58" x2="56" y2="8" gradientUnits="userSpaceOnUse">
      <stop offset="0%" stop-color="#9a3f18"/>
      <stop offset="45%" stop-color="#c45c26"/>
      <stop offset="100%" stop-color="#e59535"/>
    </linearGradient>
    <linearGradient id="mid" x1="16" y1="56" x2="48" y2="12" gradientUnits="userSpaceOnUse">
      <stop offset="0%" stop-color="#c45c26"/>
      <stop offset="55%" stop-color="#e59535"/>
      <stop offset="100%" stop-color="#f0a84d"/>
    </linearGradient>
    <linearGradient id="core" x1="24" y1="52" x2="40" y2="20" gradientUnits="userSpaceOnUse">
      <stop offset="0%" stop-color="#e59535"/>
      <stop offset="100%" stop-color="#ffe0a8"/>
    </linearGradient>
    <radialGradient id="glow" cx="32" cy="52" r="24" gradientUnits="userSpaceOnUse">
      <stop offset="0%" stop-color="#e59535" stop-opacity="0.55"/>
      <stop offset="70%" stop-color="#c45c26" stop-opacity="0.12"/>
      <stop offset="100%" stop-color="#c45c26" stop-opacity="0"/>
    </radialGradient>
  </defs>
  <ellipse cx="32" cy="50" rx="22" ry="10" fill="url(#glow)"/>
  <path d="M32 59.5C19.5 59.5 11 47.5 13.5 35.5C15 27.5 20 18.5 26.5 11.5C28.5 15.5 30.5 23 32 33C33.5 23 35.5 15.5 37.5 11.5C44 18.5 49 27.5 50.5 35.5C53 47.5 44.5 59.5 32 59.5Z" fill="url(#outer)"/>
  <path d="M32 57C23.5 57 17.5 47.5 18.5 38C19.5 31 23 24 27.5 18.5C29 22 30.5 27.5 32 35.5C33.5 27.5 35 22 36.5 18.5C41 24 44.5 31 45.5 38C46.5 47.5 40.5 57 32 57Z" fill="url(#mid)"/>
  <path d="M32 53.5C28 53.5 25 49 25.5 43.5C26 39.5 28 34 32 28.5C36 34 38 39.5 38.5 43.5C39 49 36 53.5 32 53.5Z" fill="url(#core)"/>
  <circle cx="24" cy="14" r="1.6" fill="#f0a84d"/>
  <circle cx="32" cy="9" r="2.1" fill="#ffe0a8"/>
  <circle cx="40" cy="15" r="1.3" fill="#e59535"/>
  <path d="M46 22 L52 20 L49 26 L54 30 L47 29 L45 35 L43 29 L36 30 L41 26 L38 20 Z" fill="#f0a84d" opacity="0.85"/>
</svg>
